<svg xmlns="http://www.w3.org/2000/svg" width="227.17" height="98.13"><defs><style>.cls-1{fill:#fff}</style></defs><g id="Layer_2" data-name="Layer 2"><g id="Layer_1-2" data-name="Layer 1"><g id="Layer_2-2" data-name="Layer 2"><g id="logo"><path id="russia_word" data-name="russia word" class="cls-1" d="M226 23.06h-5.34c-1 0-1.13.39-1.17 1.18v37.24c0 1 .45 1.18 1.22 1.24h5.24c.72 0 1.22-.15 1.22-1.24V24.25c-.02-1.01-.36-1.19-1.17-1.19Zm-73.33 0h-5.37c-1 0-1.11.39-1.16 1.18v37.24c0 1 .44 1.18 1.23 1.24h5.23c.73 0 1.23-.15 1.23-1.24V24.25c0-1-.34-1.19-1.18-1.19Zm-17.1 49.51c-3.37-.91-10.33-3.33-12.19-9.67 10-3.76 12.47-13.49 12.47-20.17 0-12.13-7.2-20.58-17.81-20.58-9.78 0-18 7.09-18 21 0 9.12 4.21 18.5 15.34 20.29C120 74.3 134.73 76 135.85 76c1.58 0 2-1 2-1.64-.04-1.23-.85-1.46-2.28-1.79ZM117.93 59c-.73 0-4.67 0-7.48-4.67-2-3.43-2.48-8.1-2.48-11.57 0-3.77.51-8.25 2.48-11.41a9.14 9.14 0 0 1 7.55-4.47 8.5 8.5 0 0 1 7.25 4.27c2.35 3.66 2.69 8.66 2.69 11.36.06 3.3-.28 8-2.19 11.46a9.13 9.13 0 0 1-7.82 5.03Zm91-35.91h-3.82c-.78 0-1.07.22-1.29 1.13l-6.52 25.73-8-25.57c-.34-1.06-.39-1.17-.78-1.28h-2.14c-.62 0-.73.33-1 1.13l-7.88 25.69-6.5-25.63c-.28-1.19-.51-1.23-1.46-1.23h-5.28c-.56 0-1.08.18-1.08.84a2.55 2.55 0 0 0 .18.89l10.51 36.86c.28.9.58 1 1.58 1h2.51c.56 0 .67-.21 1-1l7.53-24 8 24c.28.85.46 1 1 1h2.77c.78 0 .95-.21 1.23-1.1l10.37-36.8a6.68 6.68 0 0 0 .16-1c0-.74-.5-.74-1.12-.74Z"/><path id="main_word" data-name="main word" class="cls-1" d="M180 79.23h-.17l.2-.08a3.44 3.44 0 0 0 2.12-3 2.93 2.93 0 0 0-1.41-2.53 6.91 6.91 0 0 0-3.58-.76 15.38 15.38 0 0 0-2.91.25c-.31.09-.35.27-.35.61v11.9c0 .44 0 .6.36.7a12.49 12.49 0 0 0 2.82.26c1.48 0 5.93 0 5.93-3.74a3.58 3.58 0 0 0-3.01-3.61Zm-4.1-5 1.25-.09c1.91 0 2.89.8 2.89 2.35 0 .51-.18 2.14-2.66 2.32h-1.48Zm1.47 11.09-1.47-.08V80h1.1a4 4 0 0 1 3.17 1 2.71 2.71 0 0 1 .65 1.83c0 2.17-2.14 2.45-3.44 2.45ZM150 78.92l4.15-5.27.05-.08.16-.34c0-.18-.15-.29-.38-.29h-1c-.23.05-.33.14-.54.42 0 0-3.56 4.45-4.31 5.4V73.4L148 73l-.36-.08h-1.09c-.36 0-.46.12-.46.48V86c0 .39.15.46.47.46h1.07c.19 0 .45 0 .45-.38v-6.44c.29.43 4.63 6.52 4.63 6.52a.61.61 0 0 0 .65.3h1.5c.29 0 .33-.19.33-.3l-.13-.32Zm47.25-6h-1.1c-.29 0-.33 0-.53.33 0 0-6.63 9.18-6.94 9.62V73.4c0-.26 0-.41-.26-.46h-1c-.32 0-.37.14-.37.44V86c0 .39.14.43.4.43h.73c.23 0 .3-.09.49-.3 0 0 6.31-8.78 7.38-10.24V86c0 .17 0 .41.24.42a7.57 7.57 0 0 0 1 0c.33 0 .4-.18.4-.45V73.4c0-.35-.09-.46-.42-.46Zm-28.58 0H168a.66.66 0 0 0-.48.29s-6.32 8.8-7.38 10.25V73.4c0-.17 0-.41-.23-.43a5.62 5.62 0 0 0-1 0c-.35 0-.4.17-.4.46V86c0 .36.09.45.44.45h1c.29 0 .33 0 .53-.33 0 0 6.64-9.17 6.94-9.61V86c0 .24 0 .41.26.43h1c.34 0 .39-.14.39-.43V73.38c0-.38-.12-.44-.43-.44Z"/><path id="sign" class="cls-1" d="M74.18 65.78c-.93-.34-1 .75-.78 1.46.51 1.66 1.21 2.94 1.73 3.19s1.07-.39.7-2.05c-.16-.72-.71-2.23-1.65-2.6Zm-7.31 3.08h-.35a2.27 2.27 0 0 0-1.65.3 2.71 2.71 0 0 0-.36 3.76A3.41 3.41 0 0 0 66 74.06h.32a2.15 2.15 0 0 0 1.68-.29 2.69 2.69 0 0 0 .34-3.77 3.22 3.22 0 0 0-1.47-1.15ZM92.8 95.21c-2.67-5.43-7.4-9.41-12.52-12.46a27.85 27.85 0 0 0-5.53-2.38c-4-1.3-7.91-1.6-12.45-2.38a23.94 23.94 0 0 1-9.73-4.27 16.19 16.19 0 0 1-4.07-4.26c-.21-.33-1.25-1.59-1.14-2a13.16 13.16 0 0 0 .71 7c-13.2-.64-24.76-8-30.07-16.83-9.75-16.32-6.31-36.1 6.7-44.84S57.52 10.22 68.14 26c6.66 9.9 8.37 21.42 5.51 30.79l-.07.21c-5.64-4.1-10.79-2-10.79-2 5.65-.58 10.12 3.91 10.12 3.91a15.88 15.88 0 0 1 1.86 2q.19.25.39.54A15.39 15.39 0 0 1 78 67.89c11.17-14.23 13-34 3.1-49.26C68.45-.88 41.48-5.86 20.88 7.49s-27 40-14.4 59.51c10.39 16.06 34.77 21 48.75 16.53 5.28-1.66 23.38-3.24 36 11.63a11.27 11.27 0 0 1 1.68 2.66.44.44 0 0 0 .55.3h.09c.1-.12.45-.51-.75-2.91Z"/></g></g></g></g></svg>