<svg width="45" height="25" fill="none" xmlns="http://www.w3.org/2000/svg"><path d="M41.667 21.667H0L3.167 3.333H45l-3.333 18.334Z" fill="#EDEDED"/><g clip-path="url(#a)" fill="#393A41"><path d="M13.821 9.667c-1.872 0-3.293 1.409-3.293 3.088 0 1.519 1.166 2.578 2.754 2.578 1.872 0 3.283-1.449 3.283-3.128.01-1.529-1.156-2.538-2.744-2.538Zm-.421 4.237c-.716 0-1.216-.48-1.216-1.22 0-.819.618-1.598 1.51-1.598.715 0 1.215.5 1.215 1.24.01.829-.617 1.578-1.51 1.578ZM25.082 9.667c-1.872 0-3.283 1.409-3.283 3.088 0 1.519 1.166 2.578 2.754 2.578 1.872 0 3.284-1.449 3.284-3.128.01-1.529-1.157-2.538-2.755-2.538Zm-.411 4.237c-.716 0-1.215-.48-1.215-1.22 0-.819.617-1.598 1.509-1.598.715 0 1.215.5 1.215 1.24 0 .829-.617 1.578-1.51 1.578ZM33.345 11.456c0-1.02-.774-1.67-2.186-1.67h-1.98l-.872 5.427h1.666l.275-1.709h.078l.882 1.71h1.911l-1.225-1.9c.912-.32 1.45-1.009 1.45-1.858Zm-2.666.9h-.245l.186-1.14h.226c.519 0 .793.16.793.51 0 .41-.392.63-.96.63ZM8.617 11.955c-.637-.33-.775-.41-.775-.59 0-.22.255-.33.598-.33.402 0 1.01.05 1.608.63.147-.47.392-.889.705-1.259-.842-.49-1.627-.74-2.342-.74-1.421 0-2.244.78-2.244 1.72 0 .81.597 1.229 1.303 1.599.637.33.794.44.794.64 0 .22-.265.34-.618.34-.607 0-1.313-.39-1.734-.79l-.245 1.509c.43.32 1.058.65 2.009.65 1.47 0 2.264-.76 2.264-1.73 0-.8-.51-1.229-1.323-1.649ZM20.966 12.165h-1.96l.157-.95h2.097a3.77 3.77 0 0 1 1.215-1.428h-3.43c-.764 0-1.411.53-1.52 1.249l-.665 4.187h1.666l.274-1.709h1.98l.147-.929c.01-.15.02-.28.04-.42ZM33.384 9.787c.45.35.725.84.784 1.429h1.392l-.637 3.997h1.666l.637-3.997h1.549L39 9.786h-5.616Z"/></g><defs><clipPath id="a"><path fill="#fff" transform="translate(5.667 9.667)" d="M0 0h33.333v5.667H0z"/></clipPath></defs></svg>