<svg data-name="Layer 1" xmlns="http://www.w3.org/2000/svg" width="700" height="147.56"><g fill="#fff"><path d="M233.38 117.04V22.47h-33.95V0h92.33v22.47h-33.95v94.57Z"/><path d="M287.91 117.04V32.13h22.47v13.44c5.32-11.41 12.18-13.44 19.53-13.44h8.68v22.75h-7.35c-10.57 0-20.02 6.09-20.02 24.71v37.52h-23.31ZM349.16 85.96V32.13h23.24v48.58c0 9.94 4.83 17.29 14.77 17.29 9.59 0 15.68-7.35 15.68-17.15V32.13h23.24v84.98h-22.12V106.4c-5.6 8.47-13.93 12.67-24.5 12.67-18.62-.07-30.31-12.88-30.31-33.11ZM436.03 93.17l20.23-4.62c.98 6.58 6.23 11.55 16.38 11.55 7.84 0 12.18-3.22 12.18-7.21 0-3.22-1.75-5.6-9.8-7.35l-13.3-2.87c-17.01-3.71-24.22-11.55-24.22-25.83 0-14.56 12.04-26.32 34.65-26.32 24.01 0 33.67 14.42 34.65 23.87l-20.37 4.48c-.98-4.97-4.62-10.43-14.77-10.43-6.44 0-11.2 2.87-11.2 7.07 0 3.5 2.38 5.46 6.58 6.44l19.39 4.48c14.77 3.36 21.63 12.18 21.63 24.71 0 13.44-10.71 27.58-35.28 27.58-27.02-.07-35.84-16.24-36.75-25.55ZM552.72 117.04c-15.05 0-25.13-8.33-25.13-24.85V52.43h-14.28V32.06h14.28v-18.9l23.24-6.72v25.62h17.15v20.37h-17.15v35.56c0 6.23 3.22 8.68 9.45 8.68h8.96v20.37ZM581.84 117.04V.07h23.24v117.04h-23.24ZM675.15 32.13H700l-35.42 115.43h-24.85l9.8-30.45h-12.81l-23.38-84.98h24.85l17.5 65.73ZM0 51.31h54.53V7.77l43.54 43.54-43.54 43.47v22.26h52.85V51.31h48.51V.07H0v51.24z"/></g></svg>